<?xml version="1.0" encoding="UTF-8"?><svg xmlns="http://www.w3.org/2000/svg" viewBox="0 0 109.08 117.99"><defs><style>.g{fill:none;stroke:#77c7a3;stroke-width:3px;}.g,.h{stroke-linecap:round;stroke-linejoin:round;}.h{fill:#f4f3f2;stroke:#f4f3f2;stroke-width:4px;}</style></defs><g id="a"/><g id="b"><g id="c"><g id="d"><g id="e"><line class="g" x1="41.48" y1="77.08" x2="79.21" y2="31.11"/><polygon class="g" points="89.47 45 72.08 39.61 63.35 23.63 81.46 1.5 88.4 20.35 107.58 22.87 89.47 45"/></g><g id="f"><g><path class="h" d="M75.94,50.14c-.21,.25-.42,.51-.64,.78,12.39,14.38,11.12,34.04-1.24,49.29-13.89,17.13-39.13,19.76-56.26,5.87C.66,92.18-1.98,66.94,11.92,49.81c12.41-15.3,31.87-21.02,48.52-11.74,.22-.27,.44-.53,.65-.79-17.09-9.62-37.18-3.83-49.94,11.9C-3.1,66.74-.4,92.61,17.16,106.85c17.56,14.24,43.43,11.54,57.67-6.02,12.71-15.67,13.92-35.96,1.11-50.7Z"/><path class="h" d="M63.92,64.87c-.22,.27-.44,.54-.68,.83,4.68,7.56,2.35,15.57-3.56,22.86-7.47,9.21-21.03,10.62-30.24,3.16-9.21-7.47-10.62-21.03-3.16-30.24,5.93-7.31,13.71-11.69,22.1-8.62,.23-.28,.46-.56,.68-.83-8.85-3.4-17.27,1.07-23.56,8.82-7.81,9.64-6.33,23.83,3.3,31.65,9.64,7.81,23.83,6.33,31.65-3.3,6.26-7.72,8.55-16.37,3.46-24.32Z"/></g></g></g></g></g></svg>