<?xml version="1.0" encoding="UTF-8"?><svg xmlns="http://www.w3.org/2000/svg" viewBox="0 0 503.65 118.22"><defs><style>.g{fill:#3b3b3b;stroke:#3b3b3b;}.g,.h{stroke-linecap:round;stroke-linejoin:round;stroke-width:3px;}.h{fill:none;stroke:#77c7a3;}</style></defs><g id="a"/><g id="b"><g id="c"><g><g id="d"><g><polyline class="h" points="149.67 77.32 154.99 72.07 159.16 65.88 163.91 60.17 168.65 54.44 173.81 49.06 178.13 42.99 182.65 37.07 187.66 31.56"/><polygon class="h" points="197.88 45.31 192.24 43.41 186.5 41.43 180.33 40.36 178.05 34.55 174.88 29.36 171.94 24.13 176.1 18.37 180.99 13.14 185.61 7.68 189.99 1.5 192.68 8.1 194.44 14.59 196.65 21.11 203.29 21.48 209.71 22.16 215.7 23.46 211.83 29.12 206.82 34.26 202.36 39.84 197.88 45.31"/></g></g><g><g id="e"><path class="g" d="M24.02,105.24c-10.66,0-20.13-3.58-22.52-12.33l1.8-.21c4.44,14.85,38.32,15.3,39.41-1.9,0-18.02-39.17-7.69-39.17-25.61,.58-15.85,31.81-15.66,38.22-3.69l-1.8,.74c-5.81-10.02-33.44-11.42-34.5,2.95,0,15.7,39.17,5.9,39.17,25.61,0,9.27-10.18,14.44-20.6,14.44Z"/><path class="g" d="M96.74,60.56c-16.66-14.35-41.73-1.83-39.53,18.55-2.31,20.15,23.57,33.02,39.77,18.44l1.32,1.05c-16.57,15.52-45.55,2.81-43.25-19.5-2.33-22.36,26.65-34.94,43.25-19.6l-1.56,1.05Z"/><path class="g" d="M240.41,55.92c-11.18-4.29-28.55,2.7-28.51,14.23v34.04h-1.92V54.03h1.92v9.91c8.79-12.5,18.85-11.94,29.71-9.8l-1.2,1.79Z"/><path class="g" d="M293.72,78.58h-43.85c-2.14,23,22.75,32.43,39.89,19.6l1.68,.95c-17.51,14.18-46.06,4.07-43.6-20.02-2.98-34,49.67-36,45.88-.53Zm-1.92-2c2.29-29.74-42.47-28.96-41.93,0h41.93Z"/><path class="g" d="M346.43,60.56c-16.66-14.35-41.73-1.83-39.53,18.55-2.31,20.15,23.58,33.02,39.77,18.44l1.32,1.05c-16.57,15.52-45.55,2.81-43.24-19.5-2.33-22.36,26.66-34.94,43.24-19.6l-1.56,1.05Z"/><path class="g" d="M403.69,104.4l-1.44,.21-2.04-6.95c-11.82,11.15-39.77,11.08-40.49-6.96,0-9.17,8.99-14.12,18.81-14.01,6.79-.57,15.33,1.93,21.68-3.27v-6.64c-1.5-15.31-29.1-15.95-35.1-3.27l-1.8-.53c5.77-14.09,37.91-13.56,38.82,3.58,.13,5.73-.77,32.89,1.56,37.83Zm-3.47-28.87c-6.77,4.41-14.69,2.42-21.8,2.85-8.15,0-16.77,3.69-16.77,12.33,1.63,17.64,29.11,15.2,38.57,4.64v-19.81Z"/><path class="g" d="M448.73,55.92c-11.18-4.29-28.55,2.7-28.51,14.23v34.04h-1.92V54.03h1.92v9.91c8.79-12.5,18.85-11.94,29.71-9.8l-1.2,1.79Z"/><path class="g" d="M500.48,104.61l-2.04-8.85c-4.67,6.96-12.58,9.48-19.53,9.48-18.33,0-22.76-11.7-22.76-26.13s5.15-26.13,23-26.13c6.23,0,15.21,2.32,19.53,9.48V30.63h1.8c.29,5.07-1.1,71.48,1.68,73.76l-1.68,.21Zm-1.8-34.46c-2.03-23.06-43.81-21.41-40.61,8.96-3.21,30.83,38.82,31.63,40.61,8.96v-17.91Z"/></g><g id="f"><g><path class="g" d="M184.41,50.61c-.21,.25-.42,.51-.64,.78,29.87,35.08-22.43,85.08-57.51,55.15-36.81-28.41,2.21-89.93,42.65-68.01,.22-.27,.44-.53,.65-.79-41.49-22.75-81.75,40.34-43.92,69.57,36.09,30.74,89.67-20.79,58.78-56.72Z"/><path class="g" d="M172.4,65.34c-.22,.27-.44,.54-.68,.83,11.01,18.63-17.53,40.92-33.8,26.01-18.2-13.08-1.54-45.61,18.94-38.86,.23-.28,.46-.56,.68-.83-21.57-7.6-39.47,26.61-20.25,40.47,17.23,15.74,47.16-8.1,35.11-27.62Z"/></g></g></g></g></g></g></svg>