<?xml version="1.0" encoding="UTF-8"?><svg xmlns="http://www.w3.org/2000/svg" viewBox="0 0 504.65 117.99"><defs><style>.i{fill:none;stroke:#77c7a3;stroke-width:3px;}.i,.j{stroke-linecap:round;stroke-linejoin:round;}.j{fill:#f4f3f2;stroke:#f4f3f2;stroke-width:4px;}</style></defs><g id="a"/><g id="b"><g id="c"><g id="d"><g id="e"><path class="j" d="M24.52,104.76c-10.66,0-20.13-3.58-22.52-12.33l1.8-.21c2.64,8.54,12.34,10.85,20.73,10.85s18.69-3.48,18.69-12.75c0-18.02-39.17-7.69-39.17-25.61,0-8.32,9.1-12.22,18.57-12.22,8.75,0,15.57,2.32,19.65,8.54l-1.8,.74c-4.43-6.11-10.42-7.48-17.97-7.48-6.35,0-16.53,2-16.53,10.43,0,15.7,39.17,5.9,39.17,25.61,0,9.27-10.18,14.44-20.6,14.44Z"/><path class="j" d="M97.24,60.08c-4.67-4.11-8.86-5.9-16.29-5.9-17.61,0-23.24,12.01-23.24,24.45s5.99,24.45,23.24,24.45c7.43,0,11.86-1.79,16.53-6.01l1.32,1.05c-5.27,4.74-9.94,6.64-17.85,6.64-17.49,0-25.4-11.7-25.4-26.13s7.91-26.13,25.4-26.13c7.91,0,12.58,1.79,17.85,6.53l-1.56,1.05Z"/><path class="j" d="M240.91,55.44c-2.64-.74-5.51-1.26-8.27-1.26-10.18,0-20.25,7.06-20.25,15.49v34.04h-1.92V53.55h1.92v9.91c5.75-9.17,14.38-10.96,20.25-10.96,3.23,0,6.47,.32,9.46,1.16l-1.2,1.79Z"/><path class="j" d="M294.22,78.1h-43.85c0,14.86,5.63,24.97,23.48,24.97,6.95,0,12.22-1.26,16.41-5.37l1.68,.95c-4.31,4.32-10.06,6.11-18.09,6.11-19.05,0-25.52-10.75-25.52-26.13s5.99-26.13,24.32-26.13c15.45,0,21.56,10.22,21.56,22.66v2.95Zm-1.92-2c-.12-11.91-4.79-21.92-19.65-21.92s-21.32,8.64-22.28,21.92h41.93Z"/><path class="j" d="M346.93,60.08c-4.67-4.11-8.87-5.9-16.29-5.9-17.61,0-23.24,12.01-23.24,24.45s5.99,24.45,23.24,24.45c7.43,0,11.86-1.79,16.53-6.01l1.32,1.05c-5.27,4.74-9.94,6.64-17.85,6.64-17.49,0-25.4-11.7-25.4-26.13s7.91-26.13,25.4-26.13c7.91,0,12.58,1.79,17.85,6.53l-1.56,1.05Z"/><path class="j" d="M404.19,103.92l-1.44,.21-2.04-6.95c-7.31,5.58-12.7,7.59-20.49,7.59-11.26,0-20.01-4.85-20.01-14.54,0-9.17,8.98-14.12,18.81-14.02-.36,0,8.99,0,8.99,0,3.83,0,8.75,.21,12.7-3.27v-6.64c0-7.8-9.58-12.12-16.89-12.12s-15.09,2.21-18.21,8.85l-1.8-.53c3.83-7.17,10.78-10.01,20.49-10.01,8.98,0,18.33,5.48,18.33,13.59v30.24l1.56,7.59Zm-3.47-28.87c-4.31,2.63-7.19,2.85-10.9,2.85h-10.9c-8.15,0-16.77,3.69-16.77,12.33s9.22,12.86,17.97,12.86,14.38-2.63,20.61-8.22v-19.81Z"/><path class="j" d="M449.23,55.44c-2.63-.74-5.51-1.26-8.27-1.26-10.18,0-20.25,7.06-20.25,15.49v34.04h-1.92V53.55h1.92v9.91c5.75-9.17,14.38-10.96,20.25-10.96,3.23,0,6.47,.32,9.46,1.16l-1.2,1.79Z"/><path class="j" d="M500.98,104.13l-2.04-8.85c-4.67,6.96-12.58,9.48-19.53,9.48-18.33,0-22.76-11.7-22.76-26.13s5.15-26.13,23-26.13c6.23,0,15.21,2.32,19.53,9.48V30.15h1.8V95.38s1.68,8.64,1.68,8.54l-1.68,.21Zm-1.8-34.46c0-9.59-8.98-15.49-19.53-15.49-18.09,0-21.08,12.96-21.08,24.45s2.88,24.45,20.84,24.45c10.54,0,19.77-5.69,19.77-15.49v-17.91Z"/></g><g id="f"><g id="g"><line class="i" x1="150.46" y1="77.08" x2="188.19" y2="31.11"/><polygon class="i" points="198.45 45 181.06 39.61 172.33 23.63 190.44 1.5 197.38 20.35 216.56 22.87 198.45 45"/></g><g id="h"><g><path class="j" d="M184.91,50.14c-.21,.25-.42,.51-.64,.78,12.39,14.38,11.12,34.04-1.24,49.29-13.89,17.13-39.13,19.76-56.26,5.87-17.13-13.89-19.76-39.13-5.87-56.26,12.41-15.3,31.87-21.02,48.52-11.74,.22-.27,.44-.53,.65-.79-17.09-9.62-37.18-3.83-49.94,11.9-14.24,17.56-11.54,43.43,6.02,57.67,17.56,14.24,43.43,11.54,57.67-6.02,12.71-15.67,13.92-35.96,1.11-50.7Z"/><path class="j" d="M172.9,64.87c-.22,.27-.44,.54-.68,.83,4.68,7.56,2.35,15.57-3.56,22.86-7.47,9.21-21.03,10.62-30.24,3.16-9.21-7.47-10.62-21.03-3.16-30.24,5.93-7.31,13.71-11.69,22.1-8.62,.23-.28,.46-.56,.68-.83-8.85-3.4-17.27,1.07-23.56,8.82-7.81,9.64-6.33,23.83,3.3,31.65s23.83,6.33,31.65-3.3c6.26-7.72,8.55-16.37,3.46-24.32Z"/></g></g></g></g></g></g></svg>